<?xml version="1.0" encoding="UTF-8" standalone="no"?>
<!DOCTYPE svg PUBLIC "-//W3C//DTD SVG 1.1//EN"
 "http://www.w3.org/Graphics/SVG/1.1/DTD/svg11.dtd">
<!-- Generated by graphviz version 2.40.1 (0)
 -->
<!-- Title: snakemake_dag Pages: 1 -->
<svg width="451pt" height="260pt"
 viewBox="0.00 0.00 450.50 260.00" xmlns="http://www.w3.org/2000/svg" xmlns:xlink="http://www.w3.org/1999/xlink">
<g id="graph0" class="graph" transform="scale(1 1) rotate(0) translate(4 256)">
<title>snakemake_dag</title>
<polygon fill="#ffffff" stroke="transparent" points="-4,4 -4,-256 446.5,-256 446.5,4 -4,4"/>
<!-- 0 -->
<g id="node1" class="node">
<title>0</title>
<path fill="none" stroke="#d8a456" stroke-width="2" d="M272,-36C272,-36 200,-36 200,-36 194,-36 188,-30 188,-24 188,-24 188,-12 188,-12 188,-6 194,0 200,0 200,0 272,0 272,0 278,0 284,-6 284,-12 284,-12 284,-24 284,-24 284,-30 278,-36 272,-36"/>
<text text-anchor="middle" x="236" y="-15.5" font-family="sans" font-size="10.00" fill="#000000">make_summary</text>
</g>
<!-- 1 -->
<g id="node2" class="node">
<title>1</title>
<path fill="none" stroke="#56d8c9" stroke-width="2" d="M56,-180C56,-180 12,-180 12,-180 6,-180 0,-174 0,-168 0,-168 0,-156 0,-156 0,-150 6,-144 12,-144 12,-144 56,-144 56,-144 62,-144 68,-150 68,-156 68,-156 68,-168 68,-168 68,-174 62,-180 56,-180"/>
<text text-anchor="middle" x="34" y="-159.5" font-family="sans" font-size="10.00" fill="#000000">make_dag</text>
</g>
<!-- 1&#45;&gt;0 -->
<g id="edge1" class="edge">
<title>1&#45;&gt;0</title>
<path fill="none" stroke="#c0c0c0" stroke-width="2" d="M30.0955,-143.8724C26.9255,-123.9167 25.3448,-92.0168 42,-72 59.3999,-51.0882 127.3383,-35.6454 177.9392,-26.7504"/>
<polygon fill="#c0c0c0" stroke="#c0c0c0" stroke-width="2" points="178.5431,-30.198 187.8081,-25.059 177.3605,-23.2986 178.5431,-30.198"/>
</g>
<!-- 2 -->
<g id="node3" class="node">
<title>2</title>
<path fill="none" stroke="#c6d856" stroke-width="2" d="M140.5,-108C140.5,-108 63.5,-108 63.5,-108 57.5,-108 51.5,-102 51.5,-96 51.5,-96 51.5,-84 51.5,-84 51.5,-78 57.5,-72 63.5,-72 63.5,-72 140.5,-72 140.5,-72 146.5,-72 152.5,-78 152.5,-84 152.5,-84 152.5,-96 152.5,-96 152.5,-102 146.5,-108 140.5,-108"/>
<text text-anchor="middle" x="102" y="-87.5" font-family="sans" font-size="10.00" fill="#000000">save_pinned_env</text>
</g>
<!-- 1&#45;&gt;2 -->
<g id="edge7" class="edge">
<title>1&#45;&gt;2</title>
<path fill="none" stroke="#c0c0c0" stroke-width="2" d="M51.1593,-143.8314C59.1511,-135.3694 68.8038,-125.1489 77.5416,-115.8971"/>
<polygon fill="#c0c0c0" stroke="#c0c0c0" stroke-width="2" points="80.288,-118.0866 84.6097,-108.4133 75.1989,-113.2802 80.288,-118.0866"/>
</g>
<!-- 2&#45;&gt;0 -->
<g id="edge2" class="edge">
<title>2&#45;&gt;0</title>
<path fill="none" stroke="#c0c0c0" stroke-width="2" d="M135.8139,-71.8314C153.2707,-62.4516 174.7487,-50.9112 193.3352,-40.9244"/>
<polygon fill="#c0c0c0" stroke="#c0c0c0" stroke-width="2" points="195.0446,-43.9792 202.197,-36.1628 191.7314,-37.8129 195.0446,-43.9792"/>
</g>
<!-- 3 -->
<g id="node4" class="node">
<title>3</title>
<path fill="none" stroke="#56d87b" stroke-width="2" d="M252.5,-180C252.5,-180 109.5,-180 109.5,-180 103.5,-180 97.5,-174 97.5,-168 97.5,-168 97.5,-156 97.5,-156 97.5,-150 103.5,-144 109.5,-144 109.5,-144 252.5,-144 252.5,-144 258.5,-144 264.5,-150 264.5,-156 264.5,-156 264.5,-168 264.5,-168 264.5,-174 258.5,-180 252.5,-180"/>
<text text-anchor="middle" x="181" y="-159.5" font-family="sans" font-size="10.00" fill="#000000">get_SARSr_wts_mut_bind_expr</text>
</g>
<!-- 3&#45;&gt;0 -->
<g id="edge3" class="edge">
<title>3&#45;&gt;0</title>
<path fill="none" stroke="#c0c0c0" stroke-width="2" d="M182.7905,-143.8083C185.0888,-125.1875 190.0345,-95.7008 200,-72 203.9544,-62.5953 209.6152,-53.0879 215.2805,-44.727"/>
<polygon fill="#c0c0c0" stroke="#c0c0c0" stroke-width="2" points="218.1959,-46.6664 221.1147,-36.4815 212.4816,-42.6231 218.1959,-46.6664"/>
</g>
<!-- 6 -->
<g id="node7" class="node">
<title>6</title>
<path fill="none" stroke="#56a2d8" stroke-width="2" d="M362.5,-108C362.5,-108 221.5,-108 221.5,-108 215.5,-108 209.5,-102 209.5,-96 209.5,-96 209.5,-84 209.5,-84 209.5,-78 215.5,-72 221.5,-72 221.5,-72 362.5,-72 362.5,-72 368.5,-72 374.5,-78 374.5,-84 374.5,-84 374.5,-96 374.5,-96 374.5,-102 368.5,-108 362.5,-108"/>
<text text-anchor="middle" x="292" y="-87.5" font-family="sans" font-size="10.00" fill="#000000">collapse_bcs_lib61_SARSr_wts</text>
</g>
<!-- 3&#45;&gt;6 -->
<g id="edge10" class="edge">
<title>3&#45;&gt;6</title>
<path fill="none" stroke="#c0c0c0" stroke-width="2" d="M209.01,-143.8314C223.0761,-134.7074 240.294,-123.539 255.3933,-113.7449"/>
<polygon fill="#c0c0c0" stroke="#c0c0c0" stroke-width="2" points="257.514,-116.5412 263.999,-108.1628 253.7047,-110.6684 257.514,-116.5412"/>
</g>
<!-- 4 -->
<g id="node5" class="node">
<title>4</title>
<path fill="none" stroke="#78d856" stroke-width="2" d="M430.5,-252C430.5,-252 365.5,-252 365.5,-252 359.5,-252 353.5,-246 353.5,-240 353.5,-240 353.5,-228 353.5,-228 353.5,-222 359.5,-216 365.5,-216 365.5,-216 430.5,-216 430.5,-216 436.5,-216 442.5,-222 442.5,-228 442.5,-228 442.5,-240 442.5,-240 442.5,-246 436.5,-252 430.5,-252"/>
<text text-anchor="middle" x="398" y="-231.5" font-family="sans" font-size="10.00" fill="#000000">count_variants</text>
</g>
<!-- 4&#45;&gt;0 -->
<g id="edge4" class="edge">
<title>4&#45;&gt;0</title>
<path fill="none" stroke="#c0c0c0" stroke-width="2" d="M410.1817,-215.882C416.2315,-205.7891 422.8978,-192.7221 426,-180 437.672,-132.1333 436.1492,-106.5252 401,-72 385.5053,-56.7804 335.1643,-41.583 294.1216,-31.2063"/>
<polygon fill="#c0c0c0" stroke="#c0c0c0" stroke-width="2" points="294.7323,-27.7518 284.1838,-28.7405 293.0466,-34.5458 294.7323,-27.7518"/>
</g>
<!-- 5 -->
<g id="node6" class="node">
<title>5</title>
<path fill="none" stroke="#d85656" stroke-width="2" d="M405.5,-180C405.5,-180 294.5,-180 294.5,-180 288.5,-180 282.5,-174 282.5,-168 282.5,-168 282.5,-156 282.5,-156 282.5,-150 288.5,-144 294.5,-144 294.5,-144 405.5,-144 405.5,-144 411.5,-144 417.5,-150 417.5,-156 417.5,-156 417.5,-168 417.5,-168 417.5,-174 411.5,-180 405.5,-180"/>
<text text-anchor="middle" x="350" y="-159.5" font-family="sans" font-size="10.00" fill="#000000">calculate_bc_mAb_EC50</text>
</g>
<!-- 4&#45;&gt;5 -->
<g id="edge8" class="edge">
<title>4&#45;&gt;5</title>
<path fill="none" stroke="#c0c0c0" stroke-width="2" d="M385.8876,-215.8314C380.4719,-207.7079 373.9758,-197.9637 368.0079,-189.0118"/>
<polygon fill="#c0c0c0" stroke="#c0c0c0" stroke-width="2" points="370.7347,-186.7923 362.2755,-180.4133 364.9104,-190.6753 370.7347,-186.7923"/>
</g>
<!-- 5&#45;&gt;0 -->
<g id="edge5" class="edge">
<title>5&#45;&gt;0</title>
<path fill="none" stroke="#c0c0c0" stroke-width="2" d="M366.0482,-143.8039C380.9022,-124.6487 398.5262,-94.2442 383,-72 372.2964,-56.6651 330.6479,-42.2179 294.4029,-32.1325"/>
<polygon fill="#c0c0c0" stroke="#c0c0c0" stroke-width="2" points="294.921,-28.6466 284.3535,-29.4064 293.0884,-35.4025 294.921,-28.6466"/>
</g>
<!-- 5&#45;&gt;6 -->
<g id="edge9" class="edge">
<title>5&#45;&gt;6</title>
<path fill="none" stroke="#c0c0c0" stroke-width="2" d="M335.3642,-143.8314C328.6839,-135.5386 320.6432,-125.557 313.3096,-116.4533"/>
<polygon fill="#c0c0c0" stroke="#c0c0c0" stroke-width="2" points="315.8319,-114.0052 306.8329,-108.4133 310.3806,-118.3965 315.8319,-114.0052"/>
</g>
<!-- 6&#45;&gt;0 -->
<g id="edge6" class="edge">
<title>6&#45;&gt;0</title>
<path fill="none" stroke="#c0c0c0" stroke-width="2" d="M277.8688,-71.8314C271.4189,-63.5386 263.6555,-53.557 256.5748,-44.4533"/>
<polygon fill="#c0c0c0" stroke="#c0c0c0" stroke-width="2" points="259.2236,-42.158 250.3214,-36.4133 253.6981,-46.4556 259.2236,-42.158"/>
</g>
</g>
</svg>
